HIERARCHY
ROOT joint_Root
{
	OFFSET 0.0 0.0 0.0
	CHANNELS 6 Xposition Yposition Zposition Zrotation Xrotation Yrotation 
	JOINT Hips
	{
		OFFSET -0.726466 93.3139 -2.00062
		CHANNELS 6 Xposition Yposition Zposition Zrotation Xrotation Yrotation 
		JOINT Spine
		{
			OFFSET 15.7357 0.0 0.0
			CHANNELS 6 Xposition Yposition Zposition Zrotation Xrotation Yrotation 
			JOINT Chest
			{
				OFFSET 8.98455 -0.406207 0.0
				CHANNELS 6 Xposition Yposition Zposition Zrotation Xrotation Yrotation 
				JOINT Neck
				{
					OFFSET 16.3773 0.0 0.0
					CHANNELS 6 Xposition Yposition Zposition Zrotation Xrotation Yrotation 
					JOINT Head
					{
						OFFSET 6.45672 0.0 0.0
						CHANNELS 6 Xposition Yposition Zposition Zrotation Xrotation Yrotation 
						End Site
						{
							OFFSET 0.0 0.0 0.0
						}
					}
				}
				JOINT Shoulder_L
				{
					OFFSET 12.9942 -0.242716 4.98039
					CHANNELS 6 Xposition Yposition Zposition Zrotation Xrotation Yrotation 
					JOINT UpperArm_L
					{
						OFFSET 5.34809 0.0 0.0
						CHANNELS 6 Xposition Yposition Zposition Zrotation Xrotation Yrotation 
						JOINT LowerArm_L
						{
							OFFSET 24.3286 1.87007e-05 0.0
							CHANNELS 6 Xposition Yposition Zposition Zrotation Xrotation Yrotation 
							JOINT Hand_L
							{
								OFFSET 22.2916 0.0 0.0
								CHANNELS 6 Xposition Yposition Zposition Zrotation Xrotation Yrotation 
								End Site
								{
									OFFSET 0.0 0.0 0.0
								}
							}
						}
					}
				}
				JOINT Shoulder_R
				{
					OFFSET 12.9945 -0.242716 -4.98039
					CHANNELS 6 Xposition Yposition Zposition Zrotation Xrotation Yrotation 
					JOINT UpperArm_R
					{
						OFFSET -5.34813 0.0 0.0
						CHANNELS 6 Xposition Yposition Zposition Zrotation Xrotation Yrotation 
						JOINT LowerArm_R
						{
							OFFSET -24.3289 0.000322201 0.0
							CHANNELS 6 Xposition Yposition Zposition Zrotation Xrotation Yrotation 
							JOINT Hand_R
							{
								OFFSET -22.2915 -0.000108084 0.0
								CHANNELS 6 Xposition Yposition Zposition Zrotation Xrotation Yrotation 
								End Site
								{
									OFFSET 0.0 0.0 0.0
								}
							}
						}
					}
				}
			}
		}
		JOINT UpperLeg_L
		{
			OFFSET -2.19248 -6.46944 0.0
			CHANNELS 6 Xposition Yposition Zposition Zrotation Xrotation Yrotation 
			JOINT LowerLeg_L
			{
				OFFSET 39.0811 0.0 -1.23785e-05
				CHANNELS 6 Xposition Yposition Zposition Zrotation Xrotation Yrotation 
				JOINT Foot_L
				{
					OFFSET 40.9854 0.0 -1.26872e-05
					CHANNELS 6 Xposition Yposition Zposition Zrotation Xrotation Yrotation 
					JOINT Toes_L
					{
						OFFSET 11.7543 0.0 0.0
						CHANNELS 6 Xposition Yposition Zposition Zrotation Xrotation Yrotation 
						End Site
						{
							OFFSET 0.0 0.0 0.0
						}
					}
				}
			}
		}
		JOINT UpperLeg_R
		{
			OFFSET -2.19251 6.46944 0.0
			CHANNELS 6 Xposition Yposition Zposition Zrotation Xrotation Yrotation 
			JOINT LowerLeg_R
			{
				OFFSET -39.0811 -0.00228153 -0.0401928
				CHANNELS 6 Xposition Yposition Zposition Zrotation Xrotation Yrotation 
				JOINT Foot_R
				{
					OFFSET -40.9854 0.0 0.0
					CHANNELS 6 Xposition Yposition Zposition Zrotation Xrotation Yrotation 
					JOINT Toes_R
					{
						OFFSET -11.7543 0.0 0.0
						CHANNELS 6 Xposition Yposition Zposition Zrotation Xrotation Yrotation 
						End Site
						{
							OFFSET 0.0 0.0 0.0
						}
					}
				}
			}
		}
	}
}
MOTION
Frames:	9
Frame Time:	0.0333333
0.000000 0.000000 0.000000 0.000000 0.000000 -0.000000 1.479250 92.348000 -2.663640 87.415000 -3.480910 5.431140 15.735700 0.000005 -0.000001 90.073100 85.264800 -90.657900 8.984550 -0.406207 -0.000000 1.704900 0.042998 -1.169200 16.377300 -0.000001 -0.000001 4.424890 -3.226720 2.782240 6.456720 -0.000001 -0.000000 4.935590 -4.300090 -0.415699 12.994200 -0.242716 4.980390 -89.732200 -0.831891 -72.155500 5.348090 -0.000007 -0.000001 -67.326500 40.043300 -13.768200 24.328600 0.000019 0.000005 1.540580 3.823300 -21.965700 22.291600 -0.000001 0.000005 4.440780 5.505850 -6.770700 12.994500 -0.242716 -4.980390 90.254600 -0.757142 -71.410500 -5.348130 -0.000001 -0.000004 -78.370300 -28.103000 -97.349200 -24.328900 0.000322 -0.000009 11.622800 0.471833 -87.708900 -22.291500 -0.000108 -0.000004 22.087400 5.349390 -1.359230 -2.192480 -6.469440 -0.000000 -176.610000 -5.991140 -2.326930 39.081100 -0.000007 -0.000012 -0.058189 0.132068 23.778100 40.985400 -0.000006 -0.000013 1.132440 1.550900 -66.252700 11.754300 -0.000000 0.000003 -0.000044 -0.000507 -16.597300 -2.192510 6.469440 -0.000001 179.103000 11.760200 -179.482000 -39.081100 -0.002282 -0.040193 0.018646 -0.043286 19.494500 -40.985400 0.000008 0.000006 3.629270 7.529070 -64.981600 -11.754300 -0.000006 -0.000006 -0.006746 -0.077468 -19.726500
0.000000 0.000000 0.000000 0.000000 0.000000 -0.000000 1.504130 92.359000 -2.719320 87.438900 -3.506820 5.393930 15.735700 0.000005 -0.000001 89.937200 85.243600 -90.507300 8.984550 -0.406207 -0.000000 1.747190 0.019511 -1.139510 16.377300 -0.000001 -0.000001 4.466600 -3.250180 2.798150 6.456720 -0.000001 -0.000000 4.959460 -4.287040 -0.430770 12.994200 -0.242716 4.980390 -89.748800 -0.780537 -72.157600 5.348090 -0.000007 -0.000001 -67.169100 40.081300 -13.908200 24.328600 0.000019 0.000005 1.575260 3.878990 -22.121800 22.291600 -0.000001 0.000005 4.535760 5.505990 -6.776360 12.994500 -0.242716 -4.980390 90.248000 -0.737484 -71.410900 -5.348130 -0.000001 -0.000004 -77.953200 -28.242100 -97.035800 -24.328900 0.000322 -0.000009 11.634200 0.454979 -87.792900 -22.291500 -0.000108 -0.000004 22.214700 5.349410 -1.359560 -2.192480 -6.469440 -0.000000 -176.667000 -5.928760 -2.376500 39.081100 -0.000007 -0.000012 -0.058238 0.132584 23.713700 40.985400 -0.000006 -0.000013 1.136870 1.493400 -66.178000 11.754300 -0.000000 0.000003 -0.000039 -0.000461 -16.595500 -2.192510 6.469440 -0.000001 179.072000 11.766400 -179.547000 -39.081100 -0.002282 -0.040193 0.017138 -0.039119 19.451000 -40.985400 0.000008 0.000006 3.550670 7.563950 -64.900200 -11.754300 -0.000006 -0.000006 -0.006608 -0.076260 -19.677300
0.000000 0.000000 0.000000 0.000000 0.000000 -0.000000 1.516650 92.364600 -2.784640 87.424000 -3.549550 5.296970 15.735700 0.000005 -0.000001 89.893600 85.235700 -90.429000 8.984550 -0.406207 -0.000000 1.762850 0.010350 -1.069910 16.377300 -0.000001 -0.000001 4.466680 -3.262530 2.790390 6.456720 -0.000001 -0.000000 4.963100 -4.262980 -0.468809 12.994200 -0.242716 4.980390 -89.759000 -0.750385 -72.192000 5.348090 -0.000007 -0.000001 -67.142900 40.046700 -14.016500 24.328600 0.000019 0.000005 1.535520 3.779320 -22.130300 22.291600 -0.000001 0.000005 4.479590 5.508080 -6.862350 12.994500 -0.242716 -4.980390 90.247700 -0.736635 -71.415200 -5.348130 -0.000001 -0.000004 -77.388900 -28.429700 -96.485300 -24.328900 0.000322 -0.000009 11.525300 0.417339 -87.955900 -22.291500 -0.000108 -0.000004 22.273900 5.351650 -1.426970 -2.192480 -6.469440 -0.000000 -176.685000 -5.890480 -2.513680 39.081100 -0.000007 -0.000012 -0.057072 0.129913 23.716200 40.985400 -0.000006 -0.000013 1.128510 1.403430 -66.138300 11.754300 -0.000000 0.000003 -0.000038 -0.000441 -16.594700 -2.192510 6.469440 -0.000001 179.110000 11.735200 -179.692000 -39.081100 -0.002282 -0.040193 0.015707 -0.035090 19.439900 -40.985400 0.000008 0.000006 3.549020 7.547100 -64.841700 -11.754300 -0.000006 -0.000006 -0.006770 -0.077672 -19.734900
0.000000 0.000000 0.000000 0.000000 0.000000 -0.000000 1.521680 92.375700 -2.848960 87.417300 -3.563600 5.252850 15.735700 0.000005 -0.000001 89.665900 85.214800 -90.179500 8.984550 -0.406207 -0.000000 1.804230 -0.029065 -1.025960 16.377300 -0.000001 -0.000001 4.475790 -3.270520 2.759210 6.456720 -0.000001 -0.000000 4.977250 -4.244660 -0.426699 12.994200 -0.242716 4.980390 -89.762100 -0.740330 -72.185800 5.348090 -0.000007 -0.000001 -67.122100 40.133900 -14.099900 24.328600 0.000019 0.000005 1.497460 3.680880 -22.155200 22.291600 -0.000001 0.000005 4.510370 5.506280 -6.788400 12.994500 -0.242716 -4.980390 90.233100 -0.693863 -71.429100 -5.348130 -0.000001 -0.000004 -76.484600 -28.607700 -95.407900 -24.328900 0.000322 -0.000009 11.310200 0.339340 -88.305600 -22.291500 -0.000108 -0.000004 22.413300 5.353320 -1.477020 -2.192480 -6.469440 -0.000000 -176.698000 -5.883560 -2.593890 39.081100 -0.000007 -0.000012 -0.055578 0.126721 23.681600 40.985400 -0.000006 -0.000013 1.128150 1.361420 -66.067300 11.754300 -0.000000 0.000003 -0.000040 -0.000465 -16.595700 -2.192510 6.469440 -0.000001 179.135000 11.737400 -179.758000 -39.081100 -0.002282 -0.040193 0.016161 -0.036498 19.379600 -40.985400 0.000008 0.000006 3.515400 7.574610 -64.756900 -11.754300 -0.000006 -0.000006 -0.006615 -0.076321 -19.679800
0.000000 0.000000 0.000000 0.000000 0.000000 -0.000000 1.518180 92.382000 -2.903590 87.418000 -3.585380 5.228750 15.735700 0.000005 -0.000001 89.583000 85.181300 -90.078000 8.984550 -0.406207 -0.000000 1.871010 -0.044639 -0.988289 16.377300 -0.000001 -0.000001 4.468760 -3.305970 2.771340 6.456720 -0.000001 -0.000000 4.980430 -4.241050 -0.448795 12.994200 -0.242716 4.980390 -89.778300 -0.691721 -72.226300 5.348090 -0.000007 -0.000001 -67.106600 40.189300 -14.153800 24.328600 0.000019 0.000005 1.525660 3.757960 -22.114800 22.291600 -0.000001 0.000005 4.545540 5.507790 -6.850230 12.994500 -0.242716 -4.980390 90.208400 -0.617591 -71.355100 -5.348130 -0.000001 -0.000004 -74.999700 -28.638300 -93.484100 -24.328900 0.000322 -0.000009 10.398800 0.195999 -88.934400 -22.291500 -0.000108 -0.000004 22.861600 5.358900 -1.645740 -2.192480 -6.469440 -0.000000 -176.697000 -5.901860 -2.644290 39.081100 -0.000007 -0.000012 -0.054920 0.125335 23.662400 40.985400 -0.000006 -0.000013 1.124430 1.363720 -66.020600 11.754300 -0.000000 0.000003 -0.000038 -0.000446 -16.594900 -2.192510 6.469440 -0.000001 179.145000 11.762200 -179.816000 -39.081100 -0.002282 -0.040193 0.015026 -0.033306 19.362000 -40.985400 0.000008 0.000006 3.504080 7.622680 -64.704900 -11.754300 -0.000006 -0.000006 -0.006721 -0.077254 -19.717800
0.000000 0.000000 0.000000 0.000000 0.000000 -0.000000 1.496970 92.390100 -2.944600 87.400500 -3.621820 5.201000 15.735700 0.000005 -0.000001 89.288400 85.169700 -89.775800 8.984550 -0.406207 -0.000000 1.893690 -0.094938 -0.972355 16.377300 -0.000001 -0.000001 4.483860 -3.360200 2.774750 6.456720 -0.000001 -0.000000 5.062830 -4.241080 -0.395086 12.994200 -0.242716 4.980390 -89.791700 -0.648509 -72.194400 5.348090 -0.000007 -0.000001 -67.138700 40.233700 -14.104000 24.328600 0.000019 0.000005 1.553400 3.821410 -22.140900 22.291600 -0.000001 0.000005 4.542570 5.507310 -6.830580 12.994500 -0.242716 -4.980390 90.147200 -0.435346 -71.312600 -5.348130 -0.000001 -0.000004 -72.404700 -28.382700 -90.164100 -24.328900 0.000322 -0.000009 8.968800 -0.001468 -90.013300 -22.291500 -0.000108 -0.000004 23.886000 5.364870 -1.827470 -2.192480 -6.469440 -0.000000 -176.663000 -5.919410 -2.688860 39.081100 -0.000007 -0.000012 -0.056472 0.129007 23.641200 40.985400 -0.000006 -0.000013 1.109310 1.373670 -65.978300 11.754300 -0.000000 0.000003 -0.000042 -0.000481 -16.596300 -2.192510 6.469440 -0.000001 179.187000 11.766400 -179.849000 -39.081100 -0.002282 -0.040193 0.016120 -0.036516 19.312900 -40.985400 0.000008 0.000006 3.541670 7.660270 -64.659000 -11.754300 -0.000006 -0.000006 -0.006492 -0.075241 -19.635700
0.000000 0.000000 0.000000 0.000000 0.000000 -0.000000 1.457760 92.388900 -2.955440 87.399300 -3.685310 5.252530 15.735700 0.000005 -0.000001 89.101200 85.129600 -89.598100 8.984550 -0.406207 -0.000000 1.973130 -0.127594 -0.990594 16.377300 -0.000001 -0.000001 4.533770 -3.380640 2.723180 6.456720 -0.000001 -0.000000 5.174910 -4.206360 -0.316087 12.994200 -0.242716 4.980390 -89.812600 -0.582970 -72.176500 5.348090 -0.000007 -0.000001 -67.180300 40.225600 -14.049300 24.328600 0.000019 0.000005 1.524420 3.746610 -22.158800 22.291600 -0.000001 0.000005 4.544070 5.505930 -6.773840 12.994500 -0.242716 -4.980390 90.043300 -0.128366 -71.364400 -5.348130 -0.000001 -0.000004 -68.669100 -27.729300 -85.357300 -24.328900 0.000322 -0.000009 7.465820 -0.218413 -91.671000 -22.291500 -0.000108 -0.000004 24.976700 5.376990 -2.202870 -2.192480 -6.469440 -0.000000 -176.623000 -6.011360 -2.644610 39.081100 -0.000007 -0.000012 -0.055810 0.127418 23.653700 40.985400 -0.000006 -0.000013 1.082390 1.368620 -65.976500 11.754300 -0.000000 0.000003 -0.000037 -0.000439 -16.594700 -2.192510 6.469440 -0.000001 179.215000 11.705900 -179.824000 -39.081100 -0.002282 -0.040193 0.016384 -0.037211 19.341800 -40.985400 0.000008 0.000006 3.588590 7.665960 -64.670900 -11.754300 -0.000006 -0.000006 -0.006660 -0.076719 -19.696000
0.000000 0.000000 0.000000 0.000000 0.000000 -0.000000 1.403340 92.386300 -2.980700 87.388000 -3.749800 5.249210 15.735700 0.000005 -0.000001 88.722400 85.108300 -89.224800 8.984550 -0.406207 -0.000000 2.014290 -0.192777 -1.000320 16.377300 -0.000001 -0.000001 4.511220 -3.370840 2.616500 6.456720 -0.000001 -0.000000 5.323740 -4.224960 -0.251020 12.994200 -0.242716 4.980390 -89.830100 -0.526240 -72.104700 5.348090 -0.000007 -0.000001 -67.232600 40.310000 -14.007900 24.328600 0.000019 0.000005 1.531950 3.769710 -22.134600 22.291600 -0.000001 0.000005 4.567830 5.506000 -6.776840 12.994500 -0.242716 -4.980390 89.866000 0.400647 -71.510000 -5.348130 -0.000001 -0.000004 -63.713600 -26.316500 -79.283100 -24.328900 0.000322 -0.000009 6.432110 -0.410078 -93.636100 -22.291500 -0.000108 -0.000004 25.519800 5.388260 -2.558980 -2.192480 -6.469440 -0.000000 -176.580000 -5.995600 -2.670320 39.081100 -0.000007 -0.000012 -0.056494 0.128773 23.687500 40.985400 -0.000006 -0.000013 1.031470 1.308390 -65.979600 11.754300 -0.000000 0.000003 -0.000041 -0.000474 -16.596000 -2.192510 6.469440 -0.000001 179.254000 11.708700 -179.852000 -39.081100 -0.002282 -0.040193 0.013792 -0.029817 19.347800 -40.985400 0.000008 0.000006 3.481230 7.751300 -64.636700 -11.754300 -0.000006 -0.000006 -0.006529 -0.075563 -19.648800
0.000000 0.000000 0.000000 0.000000 0.000000 -0.000000 1.337180 92.372600 -2.980880 87.390400 -3.842030 5.357570 15.735700 0.000005 -0.000001 88.376100 85.054100 -88.881200 8.984550 -0.406207 -0.000000 2.120950 -0.255254 -1.004480 16.377300 -0.000001 -0.000001 4.511060 -3.282820 2.433770 6.456720 -0.000001 -0.000000 5.409400 -4.211950 -0.277412 12.994200 -0.242716 4.980390 -89.856600 -0.441770 -72.016800 5.348090 -0.000007 -0.000001 -67.287600 40.383600 -13.935000 24.328600 0.000019 0.000005 1.549210 3.816150 -22.114300 22.291600 -0.000001 0.000005 4.499990 5.506320 -6.789930 12.994500 -0.242716 -4.980390 89.666800 1.015530 -71.831300 -5.348130 -0.000001 -0.000004 -57.933000 -23.777800 -72.163600 -24.328900 0.000322 -0.000009 5.512300 -0.551140 -95.695500 -22.291500 -0.000108 -0.000004 25.167500 5.399540 -2.924050 -2.192480 -6.469440 -0.000000 -176.521000 -6.002780 -2.583760 39.081100 -0.000007 -0.000012 -0.057880 0.131424 23.769100 40.985400 -0.000006 -0.000013 0.971391 1.260980 -66.028900 11.754300 -0.000000 0.000003 -0.000040 -0.000464 -16.595600 -2.192510 6.469440 -0.000001 179.247000 11.737600 -179.793000 -39.081100 -0.002282 -0.040193 0.009885 -0.018577 19.456500 -40.985400 0.000008 0.000006 3.475510 7.853830 -64.692900 -11.754300 -0.000006 -0.000006 -0.006685 -0.076938 -19.704900
